<svg xmlns="http://www.w3.org/2000/svg" width="155" height="47" fill="none"><g clip-path="url(#a)"><path fill="url(#b)" d="m39.799 6.746-1.885-2.212c-.221-.221-.221-.332-.443-.332l.998 1.549c.776 1.437 1.44 2.986 1.884 4.644 1.996 6.857 1.109 16.257-4.878 21.012-2.771 2.212-6.319 3.428-9.866 3.428-2.66 0-4.324-1.216-4.102-3.98.222-1.328.998-2.544 1.995-3.43l.111-.11c.111-.11.222-.11.333-.22-4.102.552-9.423 5.418-8.869 9.952 1.109 6.414 9.312 6.304 14.08 4.645 5.099-1.88 9.423-5.53 12.083-10.285 1.885-3.317 2.883-7.188 2.883-11.059v-.442c0-2.875-.555-5.64-1.663-8.294a23.262 23.262 0 0 0-2.661-4.866Z"/><path fill="url(#c)" fill-rule="evenodd" d="M25.608 3.207c1.774 0 3.326 1.438 3.326 3.318 0 1.88-1.44 3.317-3.326 3.317-1.773 0-3.325-1.437-3.325-3.317 0-1.77 1.44-3.318 3.325-3.318Z" clip-rule="evenodd"/><path fill="url(#d)" d="M38.358 9.842c-.887-2.1-2.44-1.327-2.883.664-.11.332-.11.663-.11 1.106 0 .995.332 1.99.997 2.875a12.97 12.97 0 0 1 1.663 2.986c1.108 3.207 1.33 4.976.665 8.073.11-.221.887-2.654.887-2.765.333-1.548.554-3.096.554-4.645-.11-2.985-.665-5.75-1.773-8.294Z"/><path fill="#E34036" fill-rule="evenodd" d="M10.864 35.941c.111-3.318.887-6.525 2.329-9.51.886-1.77 1.995-3.318 3.325-4.756.665-.884 1.22-1.659.555-2.764-.776-1.328-2.218-1.217-3.326-.222-1.22 1.217-2.55 4.645-2.993 6.415-.444 1.769-.666 3.76-.666 5.64 0 1.658.222 3.317.555 4.976 0 0 .11.221.221.221Z" clip-rule="evenodd"/><path fill="#E34036" fill-rule="evenodd" d="M10.975 19.685c1.33-2.433 3.548-5.308 1.996-7.41-.887-1.106-2.661-.442-3.437.553-2.772 3.54-4.213 7.852-4.213 12.386 0 .664 0 1.327.111 1.88.444 3.981 1.441 8.073 5.876 12.828-1.885-3.207-2.883-6.745-2.883-10.395 0-3.428.887-6.746 2.55-9.842Z" clip-rule="evenodd"/><path fill="url(#e)" fill-rule="evenodd" d="M16.296 6.304c-2.217 5.308 1.22 10.505 7.871 9.842 7.871-.774 11.53-7.299 12.306-12.054-2.328 4.534-7.095 9.179-13.525 8.294-4.434-.664-6.43-2.875-6.652-6.082Z" clip-rule="evenodd"/><path fill="url(#f)" fill-rule="evenodd" d="M13.303 38.706c.665-18.026 28.602-23.224 19.733-7.52 5.876-4.092 7.317-12.054-.11-14.045-8.093-2.212-17.849 5.198-19.844 14.93-.111.884-.222 1.88-.222 2.764 0 1.327.222 2.654.443 3.87Z" clip-rule="evenodd"/><path fill="url(#g)" d="M45.564 20.127c0 13.824-10.864 24.993-24.168 24.993-2.328 0-4.545-.332-6.762-.995C18.07 46.005 21.84 47 25.72 47c12.638 0 22.948-10.285 22.948-22.892 0-5.53-1.995-10.727-5.543-14.93 1.552 3.43 2.439 7.19 2.439 10.95Z"/><path fill="#2E6EB3" fill-rule="evenodd" d="M3.658 24.772c0-12.607 10.2-22.781 22.838-22.781 2.993 0 5.986.553 8.869 1.769C31.595 1.327 27.271 0 22.837 0 10.2 0 0 10.174 0 22.781c0 9.179 5.543 17.473 14.08 21.012C7.538 39.7 3.657 32.513 3.657 24.772Z" clip-rule="evenodd"/><path fill="#fff" d="M58.202 6.635c-.444 0-.887-.11-1.22-.331-.332-.222-.665-.443-.887-.885-.221-.332-.332-.774-.332-1.217 0-.442.11-.774.332-1.216.222-.221.444-.553.887-.774.333-.221.776-.332 1.22-.332.443 0 .887.11 1.22.332.332.22.664.442.886.774.222.332.333.774.333 1.216 0 .443-.111.885-.333 1.217-.222.332-.554.663-.887.774-.332.332-.776.442-1.22.442Zm0-.774c.332 0 .554-.11.776-.221.221-.11.443-.332.554-.553.11-.221.222-.553.222-.774 0-.332-.111-.553-.222-.774a1.334 1.334 0 0 0-.554-.553c-.222-.11-.555-.221-.776-.221-.333 0-.555.11-.776.22-.222.111-.444.333-.555.554-.11.221-.221.553-.221.774 0 .221.11.553.221.774.111.221.333.442.555.553.221.11.443.221.776.221Zm3.658-3.096c.11 0 .222.11.222.22 0 .111.11.222.11.333 0 .11 0 .22-.11.331-.111.111-.222.111-.333.111-.332 0-.554-.221-.554-.553v-.221c0-.11.11-.221.11-.332l.333-.885h.444l-.222.996Zm4.656 3.096v.664h-3.88v-.553l2.772-3.207h-2.661V1.99h3.77v.553L63.855 5.75l2.66.11Zm3.991-1.659c.222 0 .444.222.665.443.111.22.222.442.222.663 0 .332-.222.664-.443.885-.333.221-.776.332-1.22.332h-2.328V1.99h2.217c.444 0 .776.11 1.109.331.222.222.443.443.443.774 0 .222 0 .443-.11.553-.222.332-.333.443-.555.553ZM68.18 2.654v1.217h1.33c.222 0 .444-.111.555-.111.11-.11.221-.221.221-.442 0-.222-.11-.332-.221-.443-.222-.11-.444-.11-.555-.11h-.11l-1.22-.11Zm1.33 3.207c.666 0 .998-.221.998-.663 0-.443-.332-.664-.998-.664h-1.33v1.327h1.33Zm6.098 0v.664H72.17V1.99h3.326v.663h-2.44v1.217h2.218v.663h-2.217v1.217h2.55v.11Zm2.55-1.216-.666.774v1.106h-.886V1.99h.886v2.322L79.71 1.99h.997l-1.995 1.99 1.995 2.544h-.998l-1.552-1.88ZM81.26 1.99h.886v4.534h-.886V1.99Zm3.547 4.644c-.333 0-.665 0-.998-.11-.332-.11-.554-.221-.776-.443l.333-.663c.222.11.443.332.665.332.222.11.554.11.776.11h.111c.222 0 .443-.11.665-.11.111-.111.222-.222.222-.443 0-.11 0-.22-.111-.332-.11-.11-.222-.11-.333-.22-.11 0-.332-.111-.554-.111-.333-.11-.554-.11-.887-.221-.222-.111-.443-.222-.554-.332a1.193 1.193 0 0 1-.333-.774c0-.222.111-.443.222-.664.11-.221.333-.442.665-.442.333-.11.665-.221.887-.221h.111c.222 0 .554 0 .776.11.222.11.443.11.665.332l-.222.663c-.221-.11-.443-.22-.665-.22-.221-.111-.443-.111-.665-.111h-.11c-.222 0-.444.11-.666.22-.11.111-.222.222-.222.443 0 .11 0 .221.111.332.111.11.222.11.333.221.11 0 .332.11.554.11.333.111.554.111.776.222.222.11.444.221.554.332.111.22.222.442.222.663 0 .221-.11.443-.222.664-.11.22-.332.332-.665.442 0 .11-.332.221-.665.221Zm3.437-3.87h-1.552V1.99h3.88v.663H89.02v3.76h-.887l.11-3.65Zm5.1 3.87c-.444 0-.888-.11-1.22-.331-.333-.222-.665-.443-.887-.885a2.13 2.13 0 0 1-.333-1.106c0-.442.111-.774.333-1.217.11-.331.444-.663.776-.884.333-.221.776-.332 1.22-.332.443 0 .886.11 1.219.332.333.22.665.442.887.774.222.332.332.774.332 1.216 0 .443-.11.885-.332 1.217a3.37 3.37 0 0 1-.887.885c-.222.22-.665.331-1.109.331Zm0-.774c.332 0 .554-.11.775-.221.222-.11.444-.332.555-.553.11-.221.221-.553.221-.774 0-.221-.11-.553-.221-.774a1.335 1.335 0 0 0-.555-.553c-.221-.11-.554-.221-.776-.221-.221 0-.554.11-.776.22-.221.111-.443.333-.554.554-.11.221-.222.553-.222.774 0 .221.111.553.222.774 0 .221.222.442.444.553.221.11.554.221.886.221Zm7.316-3.87v4.534h-.665l-2.55-3.097v3.097h-.887V1.99h.666l2.55 3.096V1.991h.886Zm5.987 4.534-.887-1.327h-1.109v1.327h-.887V1.99h1.996c.332 0 .665.11.997.22.222.111.555.333.666.554.111.22.221.553.221.774 0 .332-.11.553-.221.885-.222.22-.444.442-.666.552l.777 1.549h-.887Zm0-2.876c0-.331-.111-.553-.333-.663-.222-.11-.443-.221-.776-.221h-1.109v1.77h1.109c.222 0 .554-.111.776-.222.222-.221.333-.442.333-.664Zm5.099 2.212v.664h-3.436V1.99h3.325v.663h-2.439v1.217h2.218v.663h-2.218v1.217l2.55.11Zm2.328.774c-.332 0-.665 0-.997-.11-.333-.11-.555-.221-.776-.443l.332-.663c.222.11.444.332.665.332.222.11.555.11.776.11h.111c.222 0 .444-.11.665-.11.111-.111.222-.222.222-.443 0-.11 0-.22-.111-.332-.111-.11-.222-.11-.332-.22-.111 0-.333-.111-.555-.111-.332-.11-.554-.11-.887-.221-.221-.111-.443-.222-.554-.332-.111-.221-.222-.443-.222-.664 0-.22.111-.442.222-.663.111-.221.333-.443.665-.443.333-.11.665-.22.887-.22h.111c.222 0 .554 0 .776.11.222.11.443.11.665.332l-.222.663c-.221-.11-.443-.221-.665-.221-.221-.11-.443-.11-.665-.11h-.111c-.221 0-.443.11-.665.22-.111.111-.222.222-.222.443 0 .11 0 .221.111.332.111.11.222.11.333.22.111 0 .332.111.554.111.333.11.554.11.776.222.222.11.444.22.554.331.111.221.222.443.222.664 0 .221-.111.442-.222.663-.11.222-.332.332-.665.443 0 0-.332.11-.776.11.111 0 .111 0 0 0Zm4.546-4.644c.443 0 .665.11.997.22.222.111.555.333.665.554.111.22.222.553.222.884 0 .332-.111.553-.222.885-.11.221-.443.442-.665.553-.332.11-.665.221-.997.221h-1.109v1.327h-.887V1.991h1.996Zm0 2.543c.332 0 .665-.11.886-.221.222-.221.333-.442.333-.664 0-.22-.111-.442-.333-.663-.221-.11-.443-.221-.776-.221h-1.108v1.77h.998Zm4.767 2.101h-.111a1.84 1.84 0 0 1-1.331-.553 2.04 2.04 0 0 1-.554-1.327V1.991h.887v2.543c0 .885.333 1.327 1.109 1.327s1.108-.442 1.108-1.327V1.991h.776v2.653c0 .554-.222.996-.554 1.328a2.049 2.049 0 0 1-1.33.553c.11.11 0 .11 0 .11Zm6.319-2.433c.221.11.443.222.554.443.111.22.222.442.222.663 0 .332-.222.664-.444.885-.332.221-.776.332-1.219.332H126.492V1.99h2.217c.443 0 .776.11 1.108.331.222.222.444.443.444.774 0 .222 0 .443-.111.553-.111.332-.222.443-.443.553Zm-2.328-1.548v1.217h1.33c.222 0 .443-.111.554-.111.111-.11.222-.221.222-.442 0-.222-.111-.332-.222-.443-.222-.11-.443-.11-.554-.11h-.111l-1.219-.11Zm1.33 3.207c.665 0 .998-.221.998-.663 0-.443-.333-.664-.998-.664h-1.33v1.327h1.33Zm2.771-3.87h.887v3.76h2.328v.663h-3.215V1.991Zm3.88 0h.887v4.534h-.887V1.99Zm3.548 2.654-.665.774v1.106h-.887V1.99h.887v2.322l2.217-2.322h.998l-1.885 1.99 1.996 2.544h-.998l-1.663-1.88Zm5.986.884h-2.217l-.443.996h-.887l1.995-4.534h.776l1.996 4.534h-.887l-.333-.996Zm-.332-.663-.887-1.99-.887 1.99h1.774Zm3.547 1.77c-.332 0-.665 0-.997-.111-.333-.11-.555-.221-.776-.443l.332-.663c.222.11.444.332.665.332.222.11.555.11.776.11h.111c.222 0 .444-.11.665-.11.111-.111.222-.222.222-.443 0-.11 0-.22-.111-.332-.111-.11-.221-.11-.332-.22-.111 0-.333-.111-.555-.111-.332-.11-.554-.11-.886-.221-.222-.111-.444-.222-.555-.332-.111-.221-.221-.443-.221-.664v-.11c0-.222.11-.443.221-.664.111-.221.333-.442.665-.442.333-.11.666-.221.887-.221h.111c.222 0 .554 0 .776.11.222.11.444.11.665.332l-.221.663c-.222-.11-.444-.22-.666-.22-.221-.111-.443-.111-.665-.111h-.111c-.221 0-.443.11-.665.22-.111.111-.221.222-.221.443 0 .11 0 .221.11.332.111.11.222.11.333.221.111 0 .333.11.554.11.333.111.555.111.776.222.222.11.444.221.555.332.11.22.221.442.221.663 0 .221-.111.443-.221.664-.111.22-.333.332-.666.442 0 .11-.332.221-.776.221.111 0 .111 0 0 0Zm2.661-4.645h.887v4.534h-.887V1.99ZM62.082 26.32c-1.552 0-2.883-.332-3.88-.995-1.109-.664-1.774-1.549-2.218-2.765l2.994-1.77c.665 1.438 1.663 2.102 3.215 2.102 1.44 0 2.106-.443 2.106-1.217 0-.442-.222-.774-.665-1.106-.444-.331-1.33-.553-2.55-.884-1.22-.332-2.328-.774-3.104-1.438-.887-.774-1.441-1.88-1.441-3.207 0-1.438.554-2.544 1.552-3.428.998-.885 2.217-1.327 3.658-1.327 1.22 0 2.328.331 3.326.884.998.553 1.774 1.438 2.328 2.544l-3.104 1.77c-.554-1.217-1.441-1.77-2.66-1.77-.555 0-.888.11-1.22.332-.333.22-.444.553-.444.884 0 .332.222.664.555.996.332.331 1.108.553 2.217.884l1.441.443c.333.11.776.332 1.33.553.555.22.887.553 1.22.884.665.774 1.109 1.77 1.109 2.876 0 1.437-.555 2.654-1.552 3.428-1.22.885-2.55 1.327-4.213 1.327Zm7.317-15.704h5.875c1.552 0 2.772.553 3.88 1.549a5.26 5.26 0 0 1 1.552 3.76c0 1.437-.554 2.654-1.552 3.76-.997.995-2.328 1.548-3.88 1.548h-2.328v4.866H69.4V10.616Zm3.547 7.189h2.328c.555 0 .998-.221 1.33-.553.333-.332.555-.885.555-1.438 0-.553-.222-.995-.555-1.438a1.838 1.838 0 0 0-1.33-.553h-2.328v3.982Zm22.394 6.193c-1.552 1.548-3.437 2.322-5.654 2.322s-4.102-.774-5.654-2.322c-1.552-1.549-2.328-3.429-2.328-5.64 0-2.212.776-4.203 2.328-5.64 1.552-1.549 3.437-2.323 5.654-2.323s4.102.774 5.654 2.323c1.552 1.548 2.328 3.428 2.328 5.64 0 2.211-.776 4.091-2.328 5.64Zm-10.2-5.751c0 1.327.444 2.433 1.331 3.318.887.884 1.885 1.327 3.215 1.327 1.33 0 2.328-.443 3.215-1.327.887-.885 1.33-1.99 1.33-3.318 0-1.327-.443-2.433-1.33-3.318-.887-.884-1.885-1.327-3.215-1.327-1.33 0-2.328.443-3.215 1.327-.887.885-1.33 1.991-1.33 3.318Zm26.386 7.741h-3.77l-2.882-5.087h-1.663v5.087h-3.547V10.616h6.208c1.441 0 2.771.553 3.769 1.549a5.259 5.259 0 0 1 1.552 3.76c0 .884-.222 1.77-.776 2.543-.554.774-1.219 1.438-2.106 1.88l3.215 5.64Zm-5.654-12.054h-2.661v3.981h2.661c.443 0 .887-.22 1.219-.553.333-.331.554-.884.554-1.437s-.221-.996-.554-1.438c-.332-.442-.776-.553-1.219-.553Zm5.875-3.318h11.419v3.429h-3.991v11.943h-3.548V14.045h-3.991l.111-3.429ZM64.853 45.562h-4.545L55.32 30.191h3.88l3.437 11.28 3.437-11.28h3.77l-4.99 15.371Zm19.068 0h-3.88l-.665-2.433h-5.765l-.776 2.433h-3.88l5.21-15.371h4.546l5.21 15.371Zm-7.427-11.39-1.885 5.64h3.658l-1.773-5.64Zm18.735-1.327-5.876 9.29h5.987v3.427H84.808v-2.764l5.876-9.29h-5.765V30.08h10.31v2.765Zm1.996 12.717V30.191h3.547v15.371h-3.547Zm17.959 0h-3.769l-2.883-5.087h-1.663v5.087h-3.547V30.191h6.208c1.441 0 2.772.553 3.769 1.548a5.259 5.259 0 0 1 1.552 3.76c0 .884-.221 1.77-.776 2.543-.554.774-1.219 1.438-2.106 1.88l3.215 5.64Zm-5.654-12.054h-2.661v3.981h2.661c.444 0 .887-.22 1.22-.553.332-.331.554-.884.554-1.437s-.222-.995-.554-1.438c-.333-.442-.776-.553-1.22-.553Zm10.864-3.318v11.944h5.543v3.428h-8.979V30.191h3.436Zm7.095 15.372V30.191h3.548v15.371h-3.548Zm13.636-8.626h7.761v1.328c0 2.322-.666 4.091-2.107 5.529-1.441 1.327-3.215 1.99-5.432 1.99-2.439 0-4.434-.774-5.986-2.322-1.552-1.548-2.329-3.428-2.329-5.64 0-2.212.777-4.092 2.329-5.64s3.436-2.322 5.764-2.322c1.441 0 2.772.331 3.88.995 1.22.664 2.107 1.438 2.772 2.544l-2.993 1.769c-.333-.553-.887-.995-1.552-1.327-.666-.332-1.442-.442-2.218-.442-1.33 0-2.438.442-3.215 1.327-.886.884-1.33 1.99-1.33 3.317 0 1.327.444 2.433 1.33 3.318.887.885 2.107 1.216 3.548 1.216 1.996 0 3.326-.774 3.991-2.322h-4.102v-3.318h-.111Zm9.756 8.626V30.191h3.548v15.371h-3.548Z"/></g><defs><linearGradient id="b" x1="23.64" x2="49.868" y1="37.762" y2="4.619" gradientUnits="userSpaceOnUse"><stop stop-color="#43A44D"/><stop offset="1" stop-color="#257940"/></linearGradient><linearGradient id="c" x1="20.931" x2="28.581" y1="6.537" y2="6.509" gradientUnits="userSpaceOnUse"><stop stop-color="#F2CE9F"/><stop offset="1" stop-color="#B98C42"/></linearGradient><linearGradient id="d" x1="34.453" x2="43.526" y1="18.483" y2="14.197" gradientUnits="userSpaceOnUse"><stop stop-color="#43A44D"/><stop offset="1" stop-color="#257940"/></linearGradient><linearGradient id="e" x1="11.328" x2="35.526" y1="10.281" y2="10.126" gradientUnits="userSpaceOnUse"><stop stop-color="#F2CE9F"/><stop offset="1" stop-color="#B98C42"/></linearGradient><linearGradient id="f" x1="7.809" x2="36.89" y1="27.796" y2="27.674" gradientUnits="userSpaceOnUse"><stop stop-color="#F2CE9F"/><stop offset="1" stop-color="#B98C42"/></linearGradient><linearGradient id="g" x1="27.302" x2="51.717" y1="44" y2="7.253" gradientUnits="userSpaceOnUse"><stop stop-color="#43A44D"/><stop offset="1" stop-color="#257940"/></linearGradient><clipPath id="a"><path fill="#fff" d="M0 0h154.429v47H0z"/></clipPath></defs></svg>